<?xml version="1.0" encoding="utf-8"?>
<!-- Generator: Adobe Illustrator 21.0.0, SVG Export Plug-In . SVG Version: 6.00 Build 0)  -->
<svg version="1.1" id="Layer_1" xmlns="http://www.w3.org/2000/svg" xmlns:xlink="http://www.w3.org/1999/xlink" x="0px" y="0px"
	 viewBox="0 0 612 418.5" style="enable-background:new 0 0 612 418.5;" xml:space="preserve">
<style type="text/css">
	.st0{fill:#B55427;}
	.st1{fill:#28170C;}
	.st2{fill:#FFC73C;}
	.st3{fill:#FFFFFF;}
</style>
<g id="Layer_3">
	<path class="st0" d="M609.4,136.9c0,147-115.2,274.7-301.4,274.7C116.2,411.6,6.6,283.9,6.6,136.9h24.5L318,299.5l261-162.7
		L609.4,136.9L609.4,136.9z"/>
	<path class="st1" d="M578.9,136.9c0,133.6-104.7,249.7-273.9,249.7c-174.3,0-273.9-116.1-273.9-249.7L578.9,136.9L578.9,136.9z"/>
</g>
<g id="Layer_1_1_">
	<g>
		<path class="st2" d="M524,195.7c3.3-2.7,6.1-6.1,8.4-9.8c1.1-1.7,2.7-3.5,1.3-5.8c-2.2-1.2-3.9-0.2-5.5,1.1
			c-3.3,2.7-5.4,6.2-7,10.1c-1.1,2.8-1.6,5.9-3.4,8.2c-6,7.9-12.4,15.4-18.5,22.9c-12.2,0.9-17.8,9-20.2,18.9
			c-2.2,9.3-8.8,14-15.6,18.8c-2.4,1.8-5.7,2.4-8.3,0.1c-2.4-2.1-1.5-4.8-0.7-7.4c1.1-3.7,3-7,5-10.3c5.6-9.6,11.2-19.1,16.9-28.7
			c2.5-4.2,4.4-8.9,7.6-12.3c5-1,9.8,0.6,14.3-1c0-0.4,0-0.9,0-1.3h-13.4c4.4-7.7,8.2-14.2,12.6-21.9c-5.4,1.7-9.3,0.9-13.3,0.4
			c-4.5,7.3-8.9,14.5-13,21.1c-4.2,0.9-7.9-0.4-12.2,1.3c3.6,1.9,7,0.1,9.6,1.6c0.4,1.8-0.6,2.8-1.3,3.9
			c-7.1,12.7-14.9,25-24.1,36.4c-5,6.2-9.9,12.4-16.5,17.1c-2.9,2.1-6.1,3.3-9.6,1c-1.8-2.7-0.9-5.2,0.3-7.6
			c3-6.3,6.8-12.1,10.7-17.9c3.8-5.8,7.5-11.8,8.5-18.9c0.8-5.8-0.8-10.9-5.7-14.5c-5.2-3.7-10.1-1.8-14.8,1.1
			c-6.4,4-10.9,9.9-15.8,15.4c-0.2-1.9,0.9-3.3,1.8-4.8c12.8-20.7,25.7-41.4,38.4-62.1c0.9-1.4,2.5-2.7,1.8-5.1
			c-4.4,0.5-8.8,0.7-13.1,0c-14,23.8-28.1,47-41.4,70.7c-10.9,19.4-25.5,34.9-44.7,46.1c-0.8,0.5-1.6,1.4-2.8,0
			c11.7-20.3,23.5-40.7,35.7-61.7c-5.2-0.1-9.4,0.6-13.6-0.3c-1.5,2.2-2.9,4.2-4.4,6.3c-3.2-7.5-5.4-9.2-11.9-7.2
			c-18.2,5.5-33.8,14.8-44.6,31.1c-5.7,8.6-12.3,16.4-19.7,23.6c-2.7,2.6-5.5,5.3-9.3,6.4c-5.6,1.7-8.8-1.3-7.5-7
			c0.8-3.4,2.3-6.6,4.1-9.5c4.9-8.1,9.9-16.1,14.8-24.2c3.8-6.3,7.6-12.6,12.1-20c-5.5,0.9-9.7,0.6-13.7,0.3c-1.9,1.2-2.5,3-3.4,4.6
			c-8.6,15.1-17.7,30-29.5,42.9c-3.7,4-7.3,8.2-11.9,11.3c-2.8,1.9-5.8,3.3-9.3,0.5c-1.7-6.1,1.6-11.2,4.4-16.1
			c17.5-31.2,36.3-61.6,54.6-92.3c1-1.6,2.6-3,2.2-5.9c-4.2,1.8-8.4,0.5-12.7,0.5c-0.8,1.2-1.5,2.3-2.2,3.5
			c-11.3,19.3-22.6,38.6-33.7,58c-9.4,16.3-20.4,31.4-34.6,43.8c-6.6,5.7-13.7,10.6-23.1,9.8c-5.9-0.5-9.5-4.5-8.6-10.4
			c0.9-6.9,3.9-12.9,7.9-17.9c6.8-1.7,13.1-3.1,19.3-4.9c8.2-2.5,16.7-4.5,23-11.1c3.2-3.4,5.2-7.4,3.2-12.2
			c-1.6-3.7-6.8-6.3-11.9-5.1c-18.2,4-34.1,12.2-45,27.8c-6.1,8.7-12.4,17.2-19.4,25.1c-2.8,3.1-6,5.7-9.6,7.8
			c-2.4,1.4-5.1,2.2-7.5,0.3c-2.5-2-1.8-4.8-0.8-7.3c2.1-5.8,5.1-11.2,8.2-16.4c16.7-28.4,34.5-56.2,51.9-84.1c1.1-1.7,3-3.2,2.3-6
			c-4.4,0.4-8.8,0.1-13.1-0.7c-12.4,20.8-24.5,41.1-37.1,62.1c-2.9-8.5-5.6-10.1-13.3-7.9c-15.5,4.5-28.7,12.7-39.3,25
			c-6.9,8-9.5,17.4-6.6,27.8c3,10.5,12.5,13.6,21.3,7.2c3.2-2.4,6.1-5.2,8.6-8.2c3-3.6,5.9-7.2,8.9-10.9c-0.7,4-0.9,7.7-0.4,11.5
			c1,9,9.6,13.6,17.5,9.3c4.4-2.4,8.1-5.7,11.4-9.5c3.6-4.2,7.3-8.4,10.9-12.6c1.6,1.3,0.9,2.7,1,4c0.6,15.1,12.5,23.4,26.8,18.3
			c10.3-3.6,17.7-11.4,25.1-19c1.2-1.3,2-3.2,4.7-3.9c-2.1,5.3-2.6,10.2-1.7,15.1c1.4,8,8.6,11.6,15.7,8c3.1-1.6,5.9-3.7,8.3-6.3
			c4.1-4.4,8.2-8.8,12.4-13.4c1.2,1.9-0.2,3.3-0.4,4.9c-0.7,5.4,0.4,10.3,5,13.7c4.5,3.3,9.2,3.2,13.9,0.4c5.2-3.1,9.6-7,13.5-11.6
			c2.8-3.3,5.6-6.5,8.5-9.8c0.4,4.4,0.3,8.3,1.5,12.2c3.3,11.4,14.5,14.9,23.2,7c3.3-3,6-6.6,9-9.9c1-1.1,1.5-2.9,4.2-3.3
			c-4.1,7.7-8,14.6-11.5,21.6c-1.7,3.4-4.1,5.8-7.6,7.4c-13.8,6.4-27.8,12.6-40.3,21.4c-8,5.7-15.6,11.8-19.8,21.1
			c-2.3,5.1-3.7,10.5,0.4,15.5c3.8,4.7,9.1,4,14.3,3.2c3.1-0.5,6.1-1.5,9-2.9c7.1-3.4,13.5-7.8,19.4-12.8
			c15.2-12.9,25.9-29.1,35-46.6c2.1-4,4.8-6.8,8.7-9c11.7-6.7,22.3-14.8,30.9-25.2c0.7,2.2-0.7,3.7-1.7,5.4c-3,5.5-5.9,10.9-9.2,17
			h12.4c1.1-1.8,2.2-3.6,3.3-5.4c7.7-13.3,15.4-26.7,24.9-38.8c4.8-6.1,10-12,17.2-15.5c2.4-1.2,5.2-2,7.4,0.3
			c2.1,2.2,0.9,4.7-0.2,6.9c-3.2,6.4-7.2,12.3-11.2,18.2c-3.9,5.8-7.4,11.8-8.9,18.7c-1.3,5.9,1,12.2,5.3,15
			c5.2,3.4,10.1,2.1,14.8-1.2c5.9-4.2,10.5-9.6,15.1-15c0.9-1.1,1.5-2.8,3.7-3.1c-0.2,1.1-0.4,1.7-0.5,2.3
			c-1.9,7.5-0.1,13.5,4.9,16.9c5,3.4,10.3,2.8,16.8-2.3c3.3-2.6,6.3-5.6,9.9-8.8c1.9,6.2,5,11,11.3,12.4c7.9,1.8,15.5,0.7,22.8-2.6
			c11.7-5.4,21.9-15.7,13.6-34c-2.5-5.4-4.4-11-5.5-17C518.9,203.8,519.6,199.4,524,195.7z M221.7,202.4c1.6,3.8-0.3,6.8-2.7,9.3
			c-9.1,9.7-20.7,14.8-34.3,18.1C194.6,212.2,213.4,198.5,221.7,202.4z M111.8,254.2c-2.1,2.3-4.6,4.4-7.4,5.8
			c-6.2,3.2-10.6,0.5-10.4-7.2c0.2-4.4,2-9.2,4.5-13.7c6.8-12.3,15.6-22.9,26.2-32.1c2.9-2.5,6.2-4.5,9.9-5.4c6-1.5,9.4,1.9,7.9,8
			c-0.6,2.2-1.5,4.4-2.6,6.4C132.3,230,122.7,242.6,111.8,254.2z M317.9,277.5c-9.2,17-18.2,34.2-32.2,47.9
			c-5.3,5.2-11.4,9-19.2,9.3c-8.7,0.3-12.8-5.3-9.8-13.5c2.3-6.4,6.6-11.4,11.7-15.8c13.1-11.4,28.4-19.3,43.9-26.8
			c1.7-0.8,3.5-1.6,5.3-2.4C317.8,276.9,318,277.3,317.9,277.5z M322.2,256.3c-1.6,1.6-3.5,3.1-5.6,4.1c-5.3,2.6-9.7-0.2-9.8-6.1
			c0.3-5.6,2-10.7,4.8-15.5c7-12.3,15.9-23.1,26.7-32.3c2.8-2.4,5.9-4.3,9.6-5.1c5.6-1.2,8.6,1.8,7.7,7.4c-0.6,3.8-2.4,7.2-4.4,10.5
			C343,232.9,333.5,245.4,322.2,256.3z M373.9,240c0,0,0-0.1-0.1-0.2l0,0c0,0,0,0,0.1-0.1l0,0c0,0,0,0,0,0.1
			C374,239.8,374,239.8,373.9,240C374,240,374,240,373.9,240z M516.8,236.3c-2.4,7.8-6.8,14.3-13,19.5c-3.5,3-7.4,5-12.2,4.7
			c-4.7-0.3-8.3-2.4-10.2-6.7c-1.8-4-0.7-7.8,2-11.1c2.6-3.2,6-4.9,10-6c8.2-2.2,9.9-5.3,7.9-13.8c5-6.3,10.2-12.8,15.4-19.3
			c0.4,0.1,0.8,0.2,1.3,0.3C517.2,214.7,520.1,225.6,516.8,236.3z"/>
		<path class="st2" d="M305.5,175c1.2,6.6-1.7,11.9-7.3,13.6c-2.3,0.7-4.7,0.9-6.5-1c-1.7-1.7-1.5-4-0.9-6.1
			C292.5,175,299.9,171.7,305.5,175z"/>
		<path class="st2" d="M400.4,217.9l-0.2,0.1L400.4,217.9C400.6,218,400.4,217.9,400.4,217.9z"/>
		<path class="st2" d="M373.9,239.6l0.2,0.2C374.1,239.8,373.8,239.7,373.9,239.6C373.8,239.6,373.9,239.6,373.9,239.6z"/>
	</g>
	<g>
		<path class="st3" d="M422,286.3c-0.6,0.6-1.1,1.1-1.6,1.4s-1,0.6-1.6,0.8s-1.2,0.3-1.9,0.3c-1.8,0-3.2-0.5-4.2-1.6
			c-0.9-1.1-1.4-2.7-1.4-4.9c0-1.3,0.2-2.5,0.7-3.5s1.2-1.8,2-2.3c0.9-0.6,1.9-0.8,3-0.8c0.9,0,1.7,0.1,2.3,0.4
			c0.6,0.3,1.1,0.7,1.5,1.2s0.7,1.1,0.9,1.9s0.3,1.7,0.4,2.9h-8.4v0.2c0,1.1,0.1,1.9,0.4,2.6c0.2,0.7,0.6,1.3,1.2,1.7
			s1.2,0.6,2.1,0.6c0.7,0,1.4-0.1,2-0.4s1.2-0.7,1.7-1.3L422,286.3z M419.8,280.9c-0.1-1-0.2-1.7-0.4-2.4c-0.2-0.6-0.5-1.1-0.8-1.4
			c-0.4-0.3-0.9-0.5-1.5-0.5c-0.9,0-1.6,0.4-2.2,1.1c-0.5,0.7-0.9,1.8-1,3.1L419.8,280.9L419.8,280.9z"/>
		<path class="st3" d="M434,278.7h-1.3c-0.2-0.5-0.4-1-0.7-1.3c-0.3-0.3-0.6-0.5-0.9-0.6s-0.8-0.2-1.2-0.2c-0.7,0-1.3,0.2-1.7,0.5
			c-0.4,0.3-0.6,0.8-0.6,1.4c0,0.4,0.1,0.7,0.3,1c0.2,0.3,0.4,0.5,0.8,0.7s1,0.5,1.9,0.9s1.6,0.8,2.1,1.1c0.5,0.3,0.9,0.7,1.2,1.1
			s0.4,1,0.4,1.6c0,0.7-0.1,1.3-0.4,1.8s-0.6,0.9-1,1.2c-0.4,0.3-1,0.5-1.6,0.7s-1.3,0.2-2,0.2s-1.5-0.1-2.2-0.2s-1.4-0.3-2.1-0.4
			v-2.8h1.3c0.2,0.8,0.6,1.4,1.1,1.8s1.1,0.6,1.9,0.6c0.3,0,0.6,0,0.9-0.1s0.6-0.2,0.8-0.3c0.2-0.2,0.4-0.4,0.6-0.6
			c0.1-0.3,0.2-0.6,0.2-1c0-0.5-0.1-0.8-0.3-1.1c-0.2-0.3-0.5-0.5-0.8-0.8s-1-0.6-2-1c-0.8-0.3-1.5-0.7-1.9-1
			c-0.5-0.3-0.9-0.7-1.2-1.1s-0.4-1-0.4-1.5c0-0.7,0.2-1.4,0.6-1.9s1-1,1.7-1.2c0.7-0.3,1.6-0.4,2.6-0.4c0.6,0,1.2,0,1.7,0.1
			s1.2,0.2,2.1,0.3v2.5H434z"/>
		<path class="st3" d="M436.4,276.5c0.4-0.1,0.8-0.2,1.1-0.4c0.3-0.2,0.5-0.4,0.6-0.7c0.2-0.3,0.3-0.6,0.4-1.1
			c0.1-0.4,0.2-1,0.3-1.8h1.9v3.3h4.3v1.3h-4.3v5.9c0,0.9,0,1.6,0.1,2.1s0.2,0.9,0.4,1.2c0.2,0.3,0.4,0.5,0.7,0.6
			c0.2,0.1,0.6,0.2,1,0.2s0.7-0.1,1-0.2s0.6-0.4,0.9-0.6l0.6,0.7c-0.6,0.6-1.2,1.1-1.8,1.3c-0.6,0.3-1.1,0.4-1.8,0.4
			c-1.1,0-2-0.3-2.6-1s-0.8-1.7-0.8-3.2v-7.4h-2L436.4,276.5L436.4,276.5z"/>
		<path class="st3" d="M450.1,285.5v3.1h-2.7v-3.1H450.1z"/>
		<path class="st3" d="M467.6,285.1c0,0.5,0,0.9,0.1,1.2c0.1,0.3,0.2,0.5,0.3,0.6c0.1,0.2,0.4,0.3,0.6,0.4c0.3,0.1,0.6,0.2,1,0.2
			s1,0.1,1.7,0.1v1h-9.9v-1c1,0,1.7-0.1,2.1-0.2s0.7-0.2,1-0.3c0.2-0.2,0.4-0.4,0.5-0.6c0.1-0.3,0.2-0.7,0.2-1.3v-10.8
			c0-0.4-0.1-0.6-0.2-0.8c-0.1-0.2-0.3-0.2-0.5-0.2c-0.3,0-0.7,0.1-1.2,0.4s-1.2,0.7-1.9,1.2l-0.6-1l6.2-3.7h0.7
			c-0.1,0.9-0.1,2-0.1,3.6L467.6,285.1L467.6,285.1z"/>
		<path class="st3" d="M478,288.1v-0.7c1.2,0,2.3-0.3,3.2-0.8c0.9-0.6,1.6-1.4,2.2-2.4c0.6-1.1,0.9-2.5,1.1-4.3l-0.1-0.1
			c-0.7,0.5-1.5,0.9-2.2,1.2c-0.7,0.2-1.5,0.4-2.4,0.4c-1,0-1.9-0.2-2.6-0.7c-0.7-0.4-1.2-1.1-1.6-1.9s-0.5-1.7-0.5-2.8
			c0-0.8,0.1-1.6,0.4-2.3s0.7-1.3,1.2-1.9c0.5-0.5,1.2-1,2-1.3s1.7-0.5,2.8-0.5c1.9,0,3.3,0.6,4.3,1.9s1.5,3.1,1.5,5.6
			c0,2.2-0.4,4.1-1.1,5.8c-0.7,1.6-1.7,2.9-3,3.8s-2.8,1.4-4.6,1.6L478,288.1z M480.8,280c0.3,0,0.7,0,1-0.1s0.6-0.1,0.9-0.3
			c0.3-0.1,0.6-0.3,0.9-0.4c0.3-0.2,0.5-0.4,0.8-0.6c0.1-0.1,0.2-0.2,0.2-0.3c0.1-0.1,0.1-0.3,0.1-0.5s0.1-0.5,0.1-0.9
			c0-1.2-0.1-2.3-0.4-3.1c-0.2-0.9-0.6-1.5-1.1-2c-0.5-0.4-1.1-0.7-1.9-0.7c-0.7,0-1.2,0.1-1.7,0.3c-0.5,0.2-0.8,0.5-1.1,1
			c-0.3,0.4-0.5,0.9-0.6,1.4s-0.2,1.1-0.2,1.8c0,1.3,0.3,2.4,0.8,3.1C479.1,279.6,479.8,280,480.8,280z"/>
		<path class="st3" d="M503.1,271l-7.8,17.7h-1.9V288l7.2-15.2v-0.2h-5.9c-0.4,0-0.7,0-0.9,0.1s-0.4,0.2-0.5,0.3
			c-0.1,0.1-0.3,0.3-0.4,0.5s-0.2,0.6-0.4,1.2h-1.1l0.3-4.3h11.5v0.6H503.1z"/>
		<path class="st3" d="M514.2,285.1c0,0.5,0,0.9,0.1,1.2c0.1,0.3,0.2,0.5,0.3,0.6s0.4,0.3,0.6,0.4c0.3,0.1,0.6,0.2,1,0.2
			s1,0.1,1.7,0.1v1H508v-1c1,0,1.7-0.1,2.1-0.2s0.7-0.2,1-0.3c0.2-0.2,0.4-0.4,0.5-0.6s0.2-0.7,0.2-1.3v-10.8c0-0.4-0.1-0.6-0.2-0.8
			c-0.1-0.2-0.3-0.2-0.5-0.2c-0.3,0-0.7,0.1-1.2,0.4s-1.2,0.7-1.9,1.2l-0.6-1l6.2-3.7h0.7c-0.1,0.9-0.1,2-0.1,3.6V285.1z"/>
	</g>
	<g>
		<path class="st0" d="M350.2,128.4c-11.8,1.3-22.7,2.5-34.1,3.8c-7.4-19.7-14.7-39.1-22-58.5c-0.7,0.1-1.3,0.2-2,0.3
			c-0.4,19.2,3.5,38.4,3.2,58.2c-9,0-17.6,0-27.6,0c-2.1-40.4-4.2-81.2-6.3-122.6c12-1,23.1-1.9,35-2.8c7.7,21.8,15.4,43.5,23,65.2
			c0.7-0.1,1.4-0.2,2.1-0.4c-0.6-21-1.3-42-2-63.3C328.8,7,337,6.6,346,8C347.4,48.1,348.8,87.9,350.2,128.4z"/>
		<path class="st0" d="M359.6,8.2c10.4-0.3,19.9-0.6,29.1,1c1.6,2.5,1,4.9,0.9,7.2c-1.2,21.2-2.4,42.4-3.5,63.6
			c-0.2,4.3,0.7,8.4,2.8,12.2c2.7,4.8,6.8,7,12.4,6.3c5.2-0.6,8.1-3.7,9.3-8.7c2.4-9.8,1.4-19.7,1.5-29.6
			c0.1-14.3-0.5-28.6-1.8-42.8c-0.2-2.1-0.5-4.4,0.6-6.9c8.6-2.1,17.5-1.3,26.1-1.4c2,1.9,2.1,4,2.1,6c1.1,29.8,3.2,59.7,0.2,89.5
			c-1.3,13.1-9,22.1-23.6,25.5c-13,3-26.1,3.2-38.9-2c-13.8-5.6-20.2-16.5-21.7-30.5c-1.7-15.6,1.5-31.1,2-46.6
			C357.8,37,358.8,22.9,359.6,8.2z"/>
		<path class="st0" d="M168.4,59.3c-1.9-18.8-9.7-34.4-27.1-43.9c-12.3-6.7-25.7-8.2-39.4-7.7c-5.2,0.2-10.6-0.5-16.5,1.5
			c1.2,41.4,2.4,82.2,3.6,123.4c10.8,0.9,20.8,1.1,30.8-0.8c22.9-4.5,39.7-16.1,46.2-39.9C169,81.1,169.5,70.1,168.4,59.3z
			 M118.8,98.2c-1.3-19.6-3.5-39.2-3.9-58.9c12.9-1.7,24.1,10.3,25.6,26.4C142.1,83.2,132.9,97.6,118.8,98.2z"/>
		<path class="st0" d="M245.9,27.1c-6.7-11.3-15.5-19.9-29.8-20.5C200.4,5.9,189,13,181.2,26.2c-7,11.8-8.8,25.1-9.6,38.5
			c-0.8,14.4,0.9,28.4,6.1,42c9.1,24,44.6,38.2,65.3,10.1c10.1-13.6,13.6-28.9,13.8-42.5C256.7,54.5,253.3,39.7,245.9,27.1z M227,91
			c-6.4,11-16.9,11.6-23,0.6c-8.6-15.4-9.2-31.4-0.5-47.1c2.5-4.5,6.2-8.5,11.5-8.2c5.7,0.3,10,3.7,12.8,9.1
			c3.6,6.9,4.5,14.2,4,21.6C232.3,75.5,231.3,83.6,227,91z"/>
		<path class="st0" d="M533.2,34.9c-9.6,1.3-18.6-0.3-28.4,1.2c-0.9,31.7,0.2,63.3-1.9,95.2c-9.3,0.7-18.1,0.9-27.6,0.3
			c-0.6-32,1.9-63.6,1-95.7c-10-1.8-20.1,0.1-30.8-0.9c-0.7-9.5-1.3-18.9-2-28.4c30.3,0,60,0,90.2,0C534.8,16.5,534,25.5,533.2,34.9
			z"/>
	</g>
</g>
</svg>
