<?xml version="1.0" encoding="utf-8"?>
<!-- Generator: Adobe Illustrator 21.0.0, SVG Export Plug-In . SVG Version: 6.00 Build 0)  -->
<svg version="1.1" id="Layer_1" xmlns="http://www.w3.org/2000/svg" xmlns:xlink="http://www.w3.org/1999/xlink" x="0px" y="0px"
	 viewBox="0 0 144.3 144.3" style="enable-background:new 0 0 144.3 144.3;" xml:space="preserve">
<style type="text/css">
	.st0{fill:#FFC73C;}
</style>
<path class="st0" d="M56.8,86.2c-0.7-0.1-2.6,0-5.6,0.3c-3,0.4-6,1.1-9.1,2c-0.7,0.3-1.8,0.7-3.1,1.3c-1.3,0.6-2.7,1.5-4.1,2.6
	c-1.3,1.2-2.4,2.6-3.4,4.3c-1.1,1.8-1.6,4-1.6,6.6c0,5.1,2.3,9.2,6.9,12.5c4.3,3.3,10.3,5,17.9,5.1c6.8-0.1,12-1.6,15.5-4.5
	c3.5-2.9,5.2-6.5,5.2-11c0-3.6-1.2-6.8-3.6-9.5c-2.5-2.6-6.5-5.7-11.8-9.5C59.1,86.3,58.1,86.2,56.8,86.2 M67.2,53.5
	c0.2-1.9,0.3-3.5,0.3-4.8c0-5.7-1.5-11.4-4.4-17.1c-1.4-2.8-3.1-5-5.4-6.7c-2.3-1.6-4.9-2.5-7.8-2.6c-3.9,0.1-7.1,1.7-9.7,4.7
	c-2.2,3.2-3.2,6.7-3.1,10.7c0,5.2,1.5,10.6,4.6,16.2c1.5,2.6,3.4,4.8,5.7,6.7c2.3,1.8,5,2.7,8,2.7c3.8-0.1,6.9-1.5,9.5-4.1
	C66.1,57.3,66.8,55.4,67.2,53.5 M126.6,40.4h-15.1v15.1h-7.3V40.4H89.1v-7.3h15.1V18h7.3v15.1h15.1V40.4z M87.6,17.4l-8.9,5.2h-8.9
	c0.9,0.6,1.9,1.4,3,2.4c1.1,1.1,2.1,2.5,3.2,4.1c1,1.5,1.9,3.4,2.6,5.5c0.6,2.1,1,4.6,1,7.4c-0.1,5.1-1.2,9.3-3.4,12.3
	c-1.1,1.5-2.2,2.9-3.4,4.1c-1.3,1.3-2.7,2.5-4.2,3.9c-0.9,0.9-1.7,1.9-2.4,3c-0.8,1.2-1.3,2.5-1.3,4.1c0,1.5,0.4,2.7,1.3,3.7
	c0.7,0.9,1.5,1.8,2.2,2.5l4.9,4c3,2.5,5.7,5.2,8,8.2c2.1,3,3.3,7,3.4,11.9c0,7-3.1,13.1-9.2,18.5c-6.4,5.6-15.6,8.4-27.6,8.6
	c-10.1-0.1-17.6-2.2-22.6-6.4c-5-3.9-7.5-8.6-7.5-14.1c0-2.7,0.8-5.6,2.4-8.9c1.6-3.3,4.4-6.1,8.6-8.6c4.7-2.7,9.5-4.4,14.7-5.3
	c5.1-0.7,9.3-1.2,12.6-1.3c-1-1.4-2-2.8-2.8-4.4c-0.9-1.5-1.4-3.3-1.4-5.4c0-1.3,0.2-2.3,0.5-3.2c0.3-0.9,0.6-1.7,0.9-2.5
	c-1.6,0.2-3.2,0.3-4.6,0.3c-7.7-0.1-13.5-2.5-17.5-7.2c-4.2-4.4-6.3-9.5-6.3-15.4c0-7.1,3-13.5,8.9-19.2c4.1-3.4,8.3-5.6,12.7-6.6
	c4.4-0.9,8.4-1.3,12.3-1.3H87.6z M144.3,0H0v144.3h144.3V0z"/>
</svg>
