<?xml version="1.0" encoding="utf-8"?>
<!-- Generator: Adobe Illustrator 21.0.0, SVG Export Plug-In . SVG Version: 6.00 Build 0)  -->
<svg version="1.1" id="Layer_1" xmlns="http://www.w3.org/2000/svg" xmlns:xlink="http://www.w3.org/1999/xlink" x="0px" y="0px"
	 viewBox="0 0 144.3 144.3" style="enable-background:new 0 0 144.3 144.3;" xml:space="preserve">
<style type="text/css">
	.st0{fill:#FFC73C;}
</style>
<path class="st0" d="M91.4,72c0-10.2-8.6-18.5-19.1-18.5c-10.5,0-19.1,8.3-19.1,18.5c0,10.2,8.5,18.5,19.1,18.5
	C82.8,90.5,91.4,82.2,91.4,72 M108.9,49.7V39.5c0-2.4-1.9-4.3-4.3-4.3H93.9c-2.4,0-4.3,1.9-4.3,4.3v10.2c0,2.4,1.9,4.3,4.3,4.3h10.7
	C107,54,108.9,52.1,108.9,49.7 M109,105V64.8h-8.4c0.8,2.6,1.2,5.3,1.2,8.2c0,15.8-13.2,28.6-29.5,28.6c-16.3,0-29.6-12.8-29.6-28.6
	c0-2.8,0.4-5.6,1.2-8.2h-8.7V105c0,2.1,1.7,3.8,3.8,3.8h66.2C107.3,108.8,109,107.1,109,105 M119.7,107.5c0,6.7-5.5,12.2-12.2,12.2
	H36.8c-6.7,0-12.2-5.5-12.2-12.2V36.8c0-6.7,5.5-12.2,12.2-12.2h70.7c6.7,0,12.2,5.5,12.2,12.2V107.5z M144.3,0H0v144.3h144.3V0z"/>
</svg>
